<svg width="15" height="21" viewBox="0 0 15 21" fill="none" xmlns="http://www.w3.org/2000/svg">
<path d="M12.5028 7.50426H6.25281V2.50426C6.27286 2.17072 6.22193 1.83673 6.10338 1.52433C5.98484 1.21193 5.80137 0.92823 5.5651 0.69196C5.32883 0.455691 5.04513 0.272227 4.73273 0.153682C4.42033 0.0351371 4.08634 -0.0157922 3.75281 0.00425694L0.00280762 8.75426V20.0043H10.0028C10.8646 20.0151 11.7022 19.7194 12.3662 19.1699C13.0302 18.6204 13.4773 17.8529 13.6278 17.0043L14.8778 10.5043C14.9661 10.1457 14.9712 9.77174 14.8927 9.41092C14.8143 9.05011 14.6543 8.71202 14.4251 8.42251C14.196 8.13301 13.9036 7.89975 13.5704 7.7406C13.2372 7.58144 12.872 7.5006 12.5028 7.50426Z" fill="#D2DAE2"/>
</svg>
