<svg width="20" height="19" viewBox="0 0 20 19" fill="none" xmlns="http://www.w3.org/2000/svg">
<path d="M3.56422 4.65957C2.50602 4.19647 1.56409 3.60207 0.880371 2.64166C0.961476 2.60419 1.03232 2.57027 1.10413 2.53854C2.15083 2.07516 3.23378 1.72065 4.34709 1.456C4.94464 1.3139 5.54684 1.19573 6.15451 1.1086C6.52352 1.05567 6.89485 1.01834 7.26591 0.980314C7.47175 0.959251 7.67909 0.952413 7.88548 0.936958C7.93171 0.933539 7.96084 0.950361 7.98956 0.985374C8.64196 1.78193 9.29531 2.57752 9.94853 3.37325C9.96713 3.39595 9.98668 3.41784 10.0121 3.44752C10.0313 3.42659 10.0481 3.40977 10.063 3.39144C10.7209 2.59065 11.3789 1.78986 12.0356 0.98811C12.066 0.950909 12.0955 0.933128 12.1444 0.937231C12.4821 0.965543 12.8214 0.980998 13.1576 1.02121C13.6111 1.07537 14.0642 1.13746 14.5142 1.21529C15.4066 1.3697 16.2843 1.58744 17.1472 1.8644C17.8039 2.07516 18.4469 2.32148 19.0745 2.60775C19.0948 2.61691 19.1145 2.6273 19.1452 2.64248C18.4641 3.6022 17.5207 4.19647 16.4636 4.65903C16.4495 4.57669 16.4388 4.50749 16.4257 4.43896C16.329 3.93524 16.022 3.61821 15.548 3.44765C15.2377 3.33605 14.9158 3.27956 14.5898 3.24359C14.0277 3.1815 13.4633 3.1711 12.8983 3.17015C12.8333 3.17001 12.8103 3.18656 12.7985 3.25358C12.6238 4.25227 12.4455 5.25042 12.2677 6.24857C12.1102 7.13266 11.9514 8.01647 11.7942 8.90055C11.6097 9.93905 11.4269 10.978 11.2422 12.0165C11.0763 12.9498 10.9087 13.8828 10.7426 14.8161C10.6032 15.5996 10.4655 16.3831 10.3267 17.1665C10.2267 17.7306 10.1262 18.2946 10.0255 18.8585C10.0244 18.8644 10.0195 18.8696 10.0109 18.8847C9.9674 18.6413 9.92582 18.4076 9.88383 18.1737C9.7766 17.5763 9.66897 16.9789 9.56188 16.3815C9.44589 15.7348 9.3306 15.088 9.21461 14.4413C9.09344 13.7655 8.97171 13.0898 8.85067 12.414C8.73482 11.7674 8.61966 11.1205 8.50368 10.4738C8.3825 9.79804 8.2605 9.12239 8.13946 8.44661C8.02362 7.79996 7.90873 7.15304 7.79289 6.50639C7.68101 5.88203 7.56831 5.25781 7.45616 4.63359C7.37259 4.16816 7.28834 3.70287 7.20751 3.23703C7.19793 3.18204 7.17687 3.16399 7.12381 3.16604C6.64374 3.18355 6.16313 3.19025 5.68375 3.21925C5.27262 3.244 4.86449 3.30336 4.4747 3.44806C4.12689 3.57717 3.83831 3.77959 3.69688 4.13739C3.63985 4.28168 3.6151 4.43883 3.57598 4.59023C3.57188 4.60705 3.5701 4.62484 3.56422 4.65957Z" fill="#D3323C"/>
</svg>
